<mxfile host="Electron" modified="2024-04-02T13:17:00.371Z" agent="Mozilla/5.0 (Windows NT 10.0; Win64; x64) AppleWebKit/537.36 (KHTML, like Gecko) draw.io/23.0.2 Chrome/120.0.6099.109 Electron/28.1.0 Safari/537.36" etag="a_6_CJGlcaqZdd8_2jro" version="23.0.2" type="device">
  <diagram name="Page-1" id="LccIwY7kMjQoX_6DEALe">
    <mxGraphModel dx="1571" dy="924" grid="1" gridSize="10" guides="1" tooltips="1" connect="1" arrows="1" fold="1" page="1" pageScale="1" pageWidth="1200" pageHeight="1600" math="0" shadow="0">
      <root>
        <mxCell id="0" />
        <mxCell id="1" parent="0" />
        <mxCell id="41JFRMXLyTudxexGfeSP-1" value="User" style="shape=umlActor;verticalLabelPosition=bottom;verticalAlign=top;html=1;outlineConnect=0;" vertex="1" parent="1">
          <mxGeometry x="80" y="358" width="30" height="60" as="geometry" />
        </mxCell>
        <mxCell id="41JFRMXLyTudxexGfeSP-5" value="Create Contact" style="ellipse;whiteSpace=wrap;html=1;" vertex="1" parent="1">
          <mxGeometry x="346" y="518" width="120" height="80" as="geometry" />
        </mxCell>
        <mxCell id="41JFRMXLyTudxexGfeSP-6" value="" style="endArrow=classic;html=1;rounded=0;exitX=0.5;exitY=0.5;exitDx=0;exitDy=0;exitPerimeter=0;" edge="1" parent="1" source="41JFRMXLyTudxexGfeSP-1" target="41JFRMXLyTudxexGfeSP-5">
          <mxGeometry width="50" height="50" relative="1" as="geometry">
            <mxPoint x="160" y="398" as="sourcePoint" />
            <mxPoint x="210" y="348" as="targetPoint" />
          </mxGeometry>
        </mxCell>
        <mxCell id="41JFRMXLyTudxexGfeSP-7" value="Edit contact" style="ellipse;whiteSpace=wrap;html=1;" vertex="1" parent="1">
          <mxGeometry x="639" y="658" width="120" height="80" as="geometry" />
        </mxCell>
        <mxCell id="41JFRMXLyTudxexGfeSP-8" value="Delete Contact" style="ellipse;whiteSpace=wrap;html=1;" vertex="1" parent="1">
          <mxGeometry x="509" y="738" width="120" height="80" as="geometry" />
        </mxCell>
        <mxCell id="41JFRMXLyTudxexGfeSP-40" value="&amp;lt;&amp;lt;extend&amp;gt;&amp;gt;" style="html=1;verticalAlign=bottom;labelBackgroundColor=none;endArrow=open;endFill=0;dashed=1;rounded=0;exitX=0.028;exitY=0.321;exitDx=0;exitDy=0;exitPerimeter=0;" edge="1" parent="1" source="41JFRMXLyTudxexGfeSP-7">
          <mxGeometry width="160" relative="1" as="geometry">
            <mxPoint x="208" y="526" as="sourcePoint" />
            <mxPoint x="459" y="578" as="targetPoint" />
          </mxGeometry>
        </mxCell>
        <mxCell id="41JFRMXLyTudxexGfeSP-41" value="&amp;lt;&amp;lt;extend&amp;gt;&amp;gt;" style="html=1;verticalAlign=bottom;labelBackgroundColor=none;endArrow=open;endFill=0;dashed=1;rounded=0;entryX=1;entryY=1;entryDx=0;entryDy=0;exitX=0.432;exitY=-0.043;exitDx=0;exitDy=0;exitPerimeter=0;" edge="1" parent="1" source="41JFRMXLyTudxexGfeSP-8" target="41JFRMXLyTudxexGfeSP-5">
          <mxGeometry width="160" relative="1" as="geometry">
            <mxPoint x="557.84" y="555" as="sourcePoint" />
            <mxPoint x="584.84" y="516" as="targetPoint" />
          </mxGeometry>
        </mxCell>
        <mxCell id="41JFRMXLyTudxexGfeSP-42" value="View Contact" style="ellipse;whiteSpace=wrap;html=1;" vertex="1" parent="1">
          <mxGeometry x="679" y="558" width="120" height="80" as="geometry" />
        </mxCell>
        <mxCell id="41JFRMXLyTudxexGfeSP-43" value="&amp;lt;&amp;lt;extend&amp;gt;&amp;gt;" style="html=1;verticalAlign=bottom;labelBackgroundColor=none;endArrow=open;endFill=0;dashed=1;rounded=0;exitX=0;exitY=0.5;exitDx=0;exitDy=0;entryX=0.991;entryY=0.573;entryDx=0;entryDy=0;entryPerimeter=0;" edge="1" parent="1" source="41JFRMXLyTudxexGfeSP-42" target="41JFRMXLyTudxexGfeSP-5">
          <mxGeometry width="160" relative="1" as="geometry">
            <mxPoint x="294" y="407" as="sourcePoint" />
            <mxPoint x="459" y="568" as="targetPoint" />
          </mxGeometry>
        </mxCell>
        <mxCell id="41JFRMXLyTudxexGfeSP-44" value="Create Group" style="ellipse;whiteSpace=wrap;html=1;" vertex="1" parent="1">
          <mxGeometry x="346" y="200" width="120" height="80" as="geometry" />
        </mxCell>
        <mxCell id="41JFRMXLyTudxexGfeSP-45" value="" style="endArrow=classic;html=1;rounded=0;entryX=0.038;entryY=0.641;entryDx=0;entryDy=0;entryPerimeter=0;exitX=0.5;exitY=0.5;exitDx=0;exitDy=0;exitPerimeter=0;" edge="1" parent="1" source="41JFRMXLyTudxexGfeSP-1" target="41JFRMXLyTudxexGfeSP-44">
          <mxGeometry width="50" height="50" relative="1" as="geometry">
            <mxPoint x="370" y="400" as="sourcePoint" />
            <mxPoint x="420" y="350" as="targetPoint" />
          </mxGeometry>
        </mxCell>
        <mxCell id="41JFRMXLyTudxexGfeSP-46" value="Add Contact to group" style="ellipse;whiteSpace=wrap;html=1;" vertex="1" parent="1">
          <mxGeometry x="639" y="250" width="120" height="80" as="geometry" />
        </mxCell>
        <mxCell id="41JFRMXLyTudxexGfeSP-47" value="&amp;lt;&amp;lt;extend&amp;gt;&amp;gt;" style="html=1;verticalAlign=bottom;labelBackgroundColor=none;endArrow=open;endFill=0;dashed=1;rounded=0;" edge="1" parent="1" source="41JFRMXLyTudxexGfeSP-46" target="41JFRMXLyTudxexGfeSP-44">
          <mxGeometry width="160" relative="1" as="geometry">
            <mxPoint x="579" y="250" as="sourcePoint" />
            <mxPoint x="509" y="332" as="targetPoint" />
          </mxGeometry>
        </mxCell>
        <mxCell id="41JFRMXLyTudxexGfeSP-48" value="Remove Group" style="ellipse;whiteSpace=wrap;html=1;" vertex="1" parent="1">
          <mxGeometry x="549" y="330" width="120" height="80" as="geometry" />
        </mxCell>
        <mxCell id="41JFRMXLyTudxexGfeSP-49" value="&amp;lt;&amp;lt;extend&amp;gt;&amp;gt;" style="html=1;verticalAlign=bottom;labelBackgroundColor=none;endArrow=open;endFill=0;dashed=1;rounded=0;entryX=1;entryY=1;entryDx=0;entryDy=0;" edge="1" parent="1" source="41JFRMXLyTudxexGfeSP-48" target="41JFRMXLyTudxexGfeSP-44">
          <mxGeometry width="160" relative="1" as="geometry">
            <mxPoint x="348" y="384" as="sourcePoint" />
            <mxPoint x="348" y="436" as="targetPoint" />
          </mxGeometry>
        </mxCell>
        <mxCell id="41JFRMXLyTudxexGfeSP-50" value="View Contact by Group" style="ellipse;whiteSpace=wrap;html=1;" vertex="1" parent="1">
          <mxGeometry x="659" y="150" width="120" height="80" as="geometry" />
        </mxCell>
        <mxCell id="41JFRMXLyTudxexGfeSP-51" value="&amp;lt;&amp;lt;extend&amp;gt;&amp;gt;" style="html=1;verticalAlign=bottom;labelBackgroundColor=none;endArrow=open;endFill=0;dashed=1;rounded=0;entryX=0.942;entryY=0.25;entryDx=0;entryDy=0;entryPerimeter=0;" edge="1" parent="1" source="41JFRMXLyTudxexGfeSP-50" target="41JFRMXLyTudxexGfeSP-44">
          <mxGeometry width="160" relative="1" as="geometry">
            <mxPoint x="515" y="217.95999999999998" as="sourcePoint" />
            <mxPoint x="469" y="230" as="targetPoint" />
          </mxGeometry>
        </mxCell>
        <mxCell id="41JFRMXLyTudxexGfeSP-52" value="Search Contact" style="ellipse;whiteSpace=wrap;html=1;" vertex="1" parent="1">
          <mxGeometry x="899" y="608" width="120" height="80" as="geometry" />
        </mxCell>
        <mxCell id="41JFRMXLyTudxexGfeSP-53" value="&amp;lt;&amp;lt;extend&amp;gt;&amp;gt;" style="html=1;verticalAlign=bottom;labelBackgroundColor=none;endArrow=open;endFill=0;dashed=1;rounded=0;entryX=1;entryY=0.5;entryDx=0;entryDy=0;exitX=0;exitY=0.5;exitDx=0;exitDy=0;" edge="1" parent="1" source="41JFRMXLyTudxexGfeSP-52" target="41JFRMXLyTudxexGfeSP-42">
          <mxGeometry width="160" relative="1" as="geometry">
            <mxPoint x="853" y="674.76" as="sourcePoint" />
            <mxPoint x="785" y="621.76" as="targetPoint" />
          </mxGeometry>
        </mxCell>
        <mxCell id="41JFRMXLyTudxexGfeSP-54" value="Search for Contact in Group" style="ellipse;whiteSpace=wrap;html=1;" vertex="1" parent="1">
          <mxGeometry x="879" y="210" width="120" height="80" as="geometry" />
        </mxCell>
        <mxCell id="41JFRMXLyTudxexGfeSP-55" value="&amp;lt;&amp;lt;extend&amp;gt;&amp;gt;" style="html=1;verticalAlign=bottom;labelBackgroundColor=none;endArrow=open;endFill=0;dashed=1;rounded=0;entryX=1;entryY=0.5;entryDx=0;entryDy=0;exitX=0;exitY=0.5;exitDx=0;exitDy=0;" edge="1" parent="1" source="41JFRMXLyTudxexGfeSP-54" target="41JFRMXLyTudxexGfeSP-50">
          <mxGeometry width="160" relative="1" as="geometry">
            <mxPoint x="489" y="140" as="sourcePoint" />
            <mxPoint x="489" y="200" as="targetPoint" />
          </mxGeometry>
        </mxCell>
        <mxCell id="41JFRMXLyTudxexGfeSP-56" value="&amp;lt;&amp;lt;include&amp;gt;&amp;gt;" style="html=1;verticalAlign=bottom;labelBackgroundColor=none;endArrow=open;endFill=0;dashed=1;rounded=0;entryX=0.5;entryY=0;entryDx=0;entryDy=0;exitX=0.5;exitY=1;exitDx=0;exitDy=0;" edge="1" parent="1" source="41JFRMXLyTudxexGfeSP-44" target="41JFRMXLyTudxexGfeSP-5">
          <mxGeometry width="160" relative="1" as="geometry">
            <mxPoint x="410" y="400" as="sourcePoint" />
            <mxPoint x="580" y="450" as="targetPoint" />
          </mxGeometry>
        </mxCell>
      </root>
    </mxGraphModel>
  </diagram>
</mxfile>
